<svg width="792" height="850" xmlns="http://www.w3.org/2000/svg">
 <style type="text/css">.st0{fill-rule:evenodd;clip-rule:evenodd;fill:#fff;}</style>

 <g>
  <title>background</title>
  <rect fill="none" id="canvas_background" height="852" width="794" y="-1" x="-1"/>
 </g>
 <g>
  <title>Layer 1</title>
  <path id="svg_1" d="m397,849c0,0 -6.9,-87 -117.9,-267.6c-82.8,-134.7 -278.1,-243.4 -278.1,-467.1c0,-220 177.3,-398.3 396,-398.3s396,178.3 396,398.3c0,223.7 -194.8,331.4 -277.3,465.7c-111.2,181.3 -118.7,269 -118.7,269zm0,-985.8c-131.1,0 -237.4,106.9 -237.4,238.8c0,131.9 106.3,238.8 237.4,238.8c131.1,0 237.4,-106.9 237.4,-238.8c0,-131.9 -106.3,-238.8 -237.4,-238.8z" class="st0"/>
 </g>
</svg>