<svg width="792" height="850" xmlns="http://www.w3.org/2000/svg"><style>.st0{fill-rule:evenodd;clip-rule:evenodd;fill:#fff}</style><title>background</title><path fill="none" id="canvas_background" d="M-1-1h794v852H-1z"/><g><title>Layer 1</title><path id="svg_1" d="M397 849s-6.9-87-117.9-267.6C196.3 446.7 1 338 1 114.3 1-105.7 178.3-284 397-284s396 178.3 396 398.3C793 338 598.2 445.7 515.7 580 404.5 761.3 397 849 397 849zm0-985.8c-131.1 0-237.4 106.9-237.4 238.8S265.9 340.8 397 340.8c131.1 0 237.4-106.9 237.4-238.8S528.1-136.8 397-136.8z" class="st0"/></g></svg>